HIERARCHY
ROOT Hips
{
	OFFSET -1.602300 6.242603 43.997101
	CHANNELS 6 Xposition Yposition Zposition Zrotation Xrotation Yrotation
	JOINT Chest
	{
		OFFSET -0.204900 1.598101 7.917301
		CHANNELS 6 Xposition Yposition Zposition Zrotation Xrotation Yrotation
		JOINT Chest2
		{
			OFFSET 0.000000 0.000000 3.404099
			CHANNELS 6 Xposition Yposition Zposition Zrotation Xrotation Yrotation
			JOINT Neck
			{
				OFFSET 0.000000 0.000000 7.928600
				CHANNELS 6 Xposition Yposition Zposition Zrotation Xrotation Yrotation
				JOINT Head
				{
					OFFSET 0.000000 0.000000 2.173897
					CHANNELS 6 Xposition Yposition Zposition Zrotation Xrotation Yrotation
					End Site
					{
						OFFSET 0.000000 0.000001 10.404503
					}
				}
			}
			JOINT LeftCollar
			{
				OFFSET 2.833800 -1.396299 4.843300
				CHANNELS 6 Xposition Yposition Zposition Zrotation Xrotation Yrotation
				JOINT LeftShoulder
				{
					OFFSET 4.363600 0.000000 0.000000
					CHANNELS 6 Xposition Yposition Zposition Zrotation Xrotation Yrotation
					JOINT LeftElbow
					{
						OFFSET 0.000000 -0.000001 -10.306900
						CHANNELS 6 Xposition Yposition Zposition Zrotation Xrotation Yrotation
						JOINT LeftWrist
						{
							OFFSET 0.000000 -0.000001 -12.404900
							CHANNELS 6 Xposition Yposition Zposition Zrotation Xrotation Yrotation
							End Site
							{
								OFFSET 0.000000 0.000000 -2.173901
							}
						}
					}
				}
			}
			JOINT RightCollar
			{
				OFFSET -2.354800 -1.897200 5.063099
				CHANNELS 6 Xposition Yposition Zposition Zrotation Xrotation Yrotation
				JOINT RightShoulder
				{
					OFFSET -4.375800 0.000000 0.000000
					CHANNELS 6 Xposition Yposition Zposition Zrotation Xrotation Yrotation
					JOINT RightElbow
					{
						OFFSET 0.000000 -0.000001 -10.005001
						CHANNELS 6 Xposition Yposition Zposition Zrotation Xrotation Yrotation
						JOINT RightWrist
						{
							OFFSET 0.000000 -0.000001 -13.174900
							CHANNELS 6 Xposition Yposition Zposition Zrotation Xrotation Yrotation
							End Site
							{
								OFFSET 0.000000 0.000000 -2.173901
							}
						}
					}
				}
			}
		}
	}
	JOINT LeftHip
	{
		OFFSET 2.240600 0.386800 -2.614101
		CHANNELS 6 Xposition Yposition Zposition Zrotation Xrotation Yrotation
		JOINT LeftKnee
		{
			OFFSET 0.000000 -0.000001 -18.592899
			CHANNELS 6 Xposition Yposition Zposition Zrotation Xrotation Yrotation
			JOINT LeftAnkle
			{
				OFFSET 0.000000 -0.000001 -18.765800
				CHANNELS 6 Xposition Yposition Zposition Zrotation Xrotation Yrotation
				End Site
				{
					OFFSET 0.000000 -8.655000 0.000000
				}
			}
		}
	}
	JOINT RightHip
	{
		OFFSET -2.014900 -0.220900 -2.615898
		CHANNELS 6 Xposition Yposition Zposition Zrotation Xrotation Yrotation
		JOINT RightKnee
		{
			OFFSET 0.000000 -0.000001 -18.633900
			CHANNELS 6 Xposition Yposition Zposition Zrotation Xrotation Yrotation
			JOINT RightAnkle
			{
				OFFSET 0.000000 -0.000001 -18.285101
				CHANNELS 6 Xposition Yposition Zposition Zrotation Xrotation Yrotation
				End Site
				{
					OFFSET 0.000000 -7.524500 0.000000
				}
			}
		}
	}
}
MOTION
Frames: 6
Frame Time: 0.041667
-6.537502 25.791805 7.708309 7.824964 2.936144 -10.068929 -0.204902 1.598095 7.917308 -7.553443 12.225973 -7.213335 -0.000000 0.000002 3.404104 19.213653 -13.241060 1.215882 0.000001 0.000002 7.928606 -26.833042 5.466623 27.751825 0.000000 0.000002 2.173895 -2.216622 1.632644 -2.145061 2.833803 -1.396298 4.843302 5.019195 10.719465 16.155909 4.363593 0.000002 0.000001 -13.307336 -0.352453 -62.451787 -0.000007 0.000011 -10.306906 645.390585 -129.840066 597.685047 -0.000002 0.000001 -12.404893 -2.316509 337.028144 -361.098141 -2.354802 -1.897199 5.063103 14.408426 12.721977 -9.479737 -4.375792 0.000004 0.000001 44.084899 -26.028710 79.737787 -0.000001 0.000010 -10.004999 -597.303157 -127.422069 -601.553229 -0.000001 0.000004 -13.174896 -156.028391 -150.856257 189.528652 2.240597 0.386797 -2.614101 131.492070 -32.224638 94.863883 -0.000001 -0.000000 -18.592894 -181.966485 58.296006 202.260124 -0.000003 -0.000000 -18.765795 -33.911664 6.925018 86.978477 -2.014898 -0.220903 -2.615901 -122.853260 -18.047522 -104.609565 -0.000000 0.000005 -18.633883 176.767195 26.022382 -176.402695 -0.000006 -0.000005 -18.285084 -19.871037 32.049044 -202.920576
-6.546602 25.776201 7.710609 7.906433 3.019601 -10.247555 -0.204901 1.598098 7.917308 -7.639616 12.367194 -7.186127 -0.000002 0.000001 3.404098 19.424952 -13.243073 1.243811 0.000003 -0.000003 7.928599 -27.000510 5.183748 27.938909 -0.000001 0.000000 2.173909 -2.162252 1.579664 -2.121573 2.833803 -1.396301 4.843305 5.102914 10.588715 16.092088 4.363597 0.000005 0.000003 -13.082007 -0.110189 -62.235140 -0.000007 0.000006 -10.306906 643.760520 -130.020383 596.996892 0.000001 0.000006 -12.404894 -1.214035 337.325776 -362.206134 -2.354801 -1.897206 5.063105 14.183496 12.457187 -9.354911 -4.375794 0.000007 -0.000000 44.250473 -25.347629 79.473889 -0.000002 0.000011 -10.004997 -595.847562 -126.929927 -601.144948 -0.000002 0.000005 -13.174896 -157.950816 -151.080424 189.916866 2.240596 0.386801 -2.614100 131.407895 -32.210390 94.809583 -0.000001 -0.000000 -18.592892 -181.748834 58.271520 202.195347 -0.000003 -0.000000 -18.765797 -33.874764 6.780226 87.244772 -2.014896 -0.220899 -2.615899 -122.965084 -18.146564 -104.808454 -0.000000 -0.000000 -18.633883 176.771470 26.033951 -176.416970 -0.000004 -0.000007 -18.285086 -19.868844 32.048115 -202.921724
-6.558201 25.761602 7.711807 7.975674 3.073512 -10.456820 -0.204900 1.598094 7.917307 -7.729157 12.549952 -7.111320 -0.000001 0.000002 3.404106 19.645559 -13.253834 1.269055 0.000001 -0.000002 7.928606 -27.171915 4.895553 28.117713 0.000000 0.000000 2.173897 -2.119595 1.536315 -2.093522 2.833801 -1.396299 4.843306 5.228170 10.405658 15.976371 4.363595 0.000005 0.000002 -12.896009 0.172909 -61.980955 -0.000010 0.000007 -10.306903 642.060895 -130.126100 596.294858 -0.000001 0.000004 -12.404891 0.066431 337.574313 -363.095042 -2.354802 -1.897201 5.063104 14.007746 12.219508 -9.123547 -4.375795 0.000007 -0.000003 44.374793 -24.784236 79.172712 -0.000002 0.000008 -10.005008 -594.366559 -126.563378 -600.706613 -0.000002 0.000002 -13.174891 -159.274861 -151.463830 190.546719 2.240600 0.386798 -2.614102 131.304595 -32.215287 94.705176 -0.000002 0.000001 -18.592896 -181.521238 58.262702 202.153136 -0.000003 0.000000 -18.765793 -33.868439 6.743806 87.296634 -2.014898 -0.220899 -2.615899 -123.059136 -18.344787 -105.001803 -0.000001 0.000001 -18.633884 176.746076 26.065513 -176.449099 -0.000005 -0.000007 -18.285086 -19.857247 32.048938 -202.936381
-6.571201 25.747505 7.712311 8.059496 3.112414 -10.678626 -0.204901 1.598099 7.917304 -7.853895 12.806627 -6.939837 -0.000001 0.000004 3.404097 19.885654 -13.386525 1.251329 -0.000000 0.000000 7.928601 -27.356086 4.635695 28.296215 -0.000001 0.000000 2.173909 -2.106276 1.500872 -2.067087 2.833804 -1.396300 4.843306 5.264683 10.341478 16.008691 4.363593 0.000000 0.000002 -12.646345 0.393201 -61.905665 0.000001 0.000008 -10.306903 640.344551 -130.086936 595.476055 0.000000 0.000004 -12.404895 1.815072 337.358425 -363.951302 -2.354802 -1.897201 5.063109 14.316698 11.921689 -9.170142 -4.375793 0.000005 -0.000002 44.149035 -23.896540 79.079432 0.000001 0.000013 -10.005007 -593.105979 -126.377788 -600.220359 -0.000001 0.000003 -13.174895 -160.918628 -151.586555 190.846728 2.240597 0.386805 -2.614105 131.170354 -32.255961 94.580717 0.000000 0.000000 -18.592890 -181.258112 58.258925 202.111527 -0.000003 -0.000000 -18.765799 -33.860857 6.704784 87.353878 -2.014900 -0.220897 -2.615903 -123.164908 -18.594690 -105.196238 -0.000001 0.000003 -18.633886 176.702799 26.109462 -176.493782 -0.000004 -0.000006 -18.285086 -19.838474 32.050608 -202.960574
-6.582401 25.734003 7.712704 8.091693 3.139565 -10.889865 -0.204900 1.598101 7.917305 -7.915695 13.038108 -6.862075 -0.000002 0.000003 3.404105 20.129394 -13.441724 1.271276 0.000002 0.000000 7.928600 -27.552693 4.355700 28.508173 0.000000 0.000002 2.173896 -2.108409 1.469106 -2.056426 2.833801 -1.396299 4.843306 5.309938 10.233330 16.036524 4.363593 0.000004 -0.000001 -12.410063 0.645272 -61.807611 -0.000002 0.000008 -10.306901 638.258010 -129.911714 594.550810 0.000002 0.000003 -12.404892 3.955623 336.981535 -364.966869 -2.354803 -1.897201 5.063101 14.230725 11.804570 -9.078056 -4.375794 0.000007 -0.000003 44.369759 -23.028350 79.077458 -0.000003 0.000013 -10.005005 -591.992385 -126.243616 -599.737054 0.000000 0.000005 -13.174894 -162.379756 -151.680934 191.125413 2.240597 0.386806 -2.614101 131.083310 -32.282302 94.445861 -0.000003 -0.000000 -18.592897 -181.028099 58.251822 202.068852 -0.000003 -0.000001 -18.765795 -33.850175 6.668963 87.414428 -2.014900 -0.220893 -2.615901 -123.220192 -18.810240 -105.366180 -0.000000 0.000000 -18.633881 176.680806 26.140240 -176.527960 -0.000005 -0.000005 -18.285086 -19.827061 32.050786 -202.974863
-6.589602 25.719503 7.714211 8.112547 3.186330 -11.087629 -0.204899 1.598099 7.917305 -7.957553 13.233182 -6.812337 -0.000001 0.000000 3.404102 20.370255 -13.486415 1.291216 0.000004 -0.000003 7.928606 -27.756985 4.087158 28.724849 -0.000002 0.000001 2.173898 -2.123115 1.455078 -2.044597 2.833800 -1.396299 4.843308 5.255145 10.229705 16.193532 4.363599 0.000001 0.000001 -12.107319 0.787934 -61.899942 -0.000003 0.000007 -10.306900 636.175021 -129.845571 593.634526 -0.000001 0.000002 -12.404894 5.813109 336.548774 -366.008801 -2.354800 -1.897202 5.063108 14.263659 11.846034 -9.075959 -4.375793 0.000005 -0.000006 44.571267 -22.342321 79.253690 -0.000000 0.000013 -10.005003 -590.766448 -126.175205 -599.165832 -0.000001 0.000005 -13.174896 -163.753143 -151.889883 191.461418 2.240599 0.386800 -2.614101 131.025349 -32.279064 94.334714 0.000001 0.000000 -18.592896 -180.824504 58.246385 202.025439 -0.000003 0.000001 -18.765795 -33.837693 6.641500 87.464527 -2.014897 -0.220901 -2.615898 -123.275776 -18.898795 -105.539830 -0.000001 0.000001 -18.633884 176.717348 26.135022 -176.532823 -0.000005 -0.000006 -18.285086 -19.834492 32.047032 -202.962937
